<svg width="60" height="60" viewBox="0 0 60 60" fill="none" xmlns="http://www.w3.org/2000/svg">
<g clip-path="url(#clip0_345_881)">
<path d="M51.1999 8.78014C48.4166 5.99073 45.1096 3.77869 41.4689 2.27109C37.8281 0.76349 33.9254 -0.00996872 29.9849 -0.00485765C13.4149 -0.00485765 -0.0175781 13.4276 -0.0175781 29.9976C-0.0175781 38.2826 3.34242 45.7851 8.77242 51.2151C11.5557 54.0046 14.8627 56.2166 18.5035 57.7242C22.1442 59.2318 26.0469 60.0053 29.9874 60.0001C46.5574 60.0001 59.9899 46.5676 59.9899 29.9976C59.9899 21.7126 56.6299 14.2101 51.1999 8.78014V8.78014ZM47.3449 47.3476C45.068 49.6304 42.3624 51.4408 39.3836 52.6747C36.4049 53.9086 33.2116 54.5417 29.9874 54.5376C16.4299 54.5376 5.43992 43.5476 5.43992 29.9901C5.43588 26.7659 6.069 23.5727 7.30289 20.5939C8.53679 17.6152 10.3471 14.9096 12.6299 12.6326C14.9063 10.3498 17.6114 8.53943 20.5898 7.30552C23.5682 6.07161 26.7611 5.43852 29.9849 5.44264C43.5399 5.44264 54.5299 16.4326 54.5299 29.9876C54.5342 33.2115 53.9012 36.4044 52.6672 39.3828C51.4333 42.3612 49.6229 45.0663 47.3399 47.3426L47.3449 47.3476Z" fill="#D5CFAC"/>
<path d="M33.8424 29.9997L43.4799 20.3622C43.9553 19.8441 44.2122 19.1623 44.1969 18.4592C44.1817 17.7562 43.8955 17.0862 43.3981 16.5891C42.9007 16.092 42.2305 15.8062 41.5274 15.7915C40.8244 15.7767 40.1428 16.034 39.6249 16.5097L39.6274 16.5072L29.9899 26.1447L20.3524 16.5072C19.8342 16.0318 19.1524 15.7749 18.4494 15.7902C17.7463 15.8054 17.0763 16.0916 16.5793 16.589C16.0822 17.0865 15.7964 17.7566 15.7816 18.4597C15.7668 19.1628 16.0242 19.8444 16.4999 20.3622L16.4974 20.3597L26.1349 29.9972L16.4974 39.6347C16.2262 39.8835 16.0082 40.1846 15.8565 40.5198C15.7047 40.8551 15.6224 41.2175 15.6144 41.5854C15.6064 41.9533 15.673 42.319 15.8101 42.6605C15.9471 43.002 16.1519 43.3123 16.412 43.5726C16.6721 43.8328 16.9822 44.0378 17.3236 44.1751C17.6651 44.3124 18.0307 44.3792 18.3986 44.3714C18.7665 44.3637 19.1291 44.2816 19.4644 44.1301C19.7997 43.9786 20.1009 43.7607 20.3499 43.4897L20.3524 43.4872L29.9899 33.8497L39.6274 43.4872C39.8762 43.7584 40.1772 43.9764 40.5125 44.1282C40.8477 44.2799 41.2102 44.3622 41.5781 44.3702C41.946 44.3782 42.3117 44.3116 42.6532 44.1746C42.9947 44.0375 43.3049 43.8327 43.5652 43.5726C43.8255 43.3125 44.0305 43.0024 44.1678 42.661C44.3051 42.3196 44.3718 41.9539 44.3641 41.586C44.3564 41.2181 44.2743 40.8556 44.1227 40.5202C43.9712 40.1849 43.7534 39.8837 43.4824 39.6347L43.4799 39.6322L33.8424 29.9997Z" fill="#D5CFAC"/>
</g>
<defs>
<clipPath id="clip0_345_881">
<rect width="60" height="60" fill="white"/>
</clipPath>
</defs>
</svg>
