<svg width="60" height="60" viewBox="0 0 60 60" fill="none" xmlns="http://www.w3.org/2000/svg">
<circle cx="30" cy="30" r="30" fill="white"/>
<path d="M30 15C25.9294 15 25.4175 15.0188 23.8181 15.09C22.2188 15.165 21.1294 15.4162 20.175 15.7875C19.1739 16.164 18.2672 16.7547 17.5181 17.5181C16.7551 18.2676 16.1646 19.1742 15.7875 20.175C15.4162 21.1275 15.1631 22.2188 15.09 23.8125C15.0188 25.4156 15 25.9256 15 30.0019C15 34.0744 15.0188 34.5844 15.09 36.1838C15.165 37.7812 15.4162 38.8706 15.7875 39.825C16.1719 40.8112 16.6838 41.6475 17.5181 42.4819C18.3506 43.3162 19.1869 43.83 20.1731 44.2125C21.1294 44.5837 22.2169 44.8369 23.8144 44.91C25.4156 44.9812 25.9256 45 30 45C34.0744 45 34.5825 44.9812 36.1838 44.91C37.7794 44.835 38.8725 44.5837 39.8269 44.2125C40.8273 43.8358 41.7334 43.2451 42.4819 42.4819C43.3162 41.6475 43.8281 40.8112 44.2125 39.825C44.5819 38.8706 44.835 37.7812 44.91 36.1838C44.9812 34.5844 45 34.0744 45 30C45 25.9256 44.9812 25.4156 44.91 23.8144C44.835 22.2188 44.5819 21.1275 44.2125 20.175C43.8355 19.1742 43.2449 18.2675 42.4819 17.5181C41.7331 16.7544 40.8262 16.1637 39.825 15.7875C38.8687 15.4162 37.7775 15.1631 36.1819 15.09C34.5806 15.0188 34.0725 15 29.9963 15H30.0019H30ZM28.6556 17.7038H30.0019C34.0069 17.7038 34.4813 17.7169 36.0619 17.79C37.5244 17.8556 38.3194 18.1013 38.8481 18.3056C39.5475 18.5775 40.0481 18.9037 40.5731 19.4288C41.0981 19.9537 41.4225 20.4525 41.6944 21.1537C41.9006 21.6806 42.1444 22.4756 42.21 23.9381C42.2831 25.5188 42.2981 25.9931 42.2981 29.9963C42.2981 33.9994 42.2831 34.4756 42.21 36.0562C42.1444 37.5187 41.8988 38.3119 41.6944 38.8406C41.4539 39.4919 41.07 40.0808 40.5712 40.5637C40.0462 41.0887 39.5475 41.4131 38.8463 41.685C38.3213 41.8913 37.5263 42.135 36.0619 42.2025C34.4813 42.2738 34.0069 42.2906 30.0019 42.2906C25.9969 42.2906 25.5206 42.2738 23.94 42.2025C22.4775 42.135 21.6844 41.8913 21.1556 41.685C20.5041 41.4449 19.9146 41.0617 19.4306 40.5637C18.9314 40.0801 18.547 39.4906 18.3056 38.8387C18.1013 38.3119 17.8556 37.5169 17.79 36.0544C17.7188 34.4738 17.7038 33.9994 17.7038 29.9925C17.7038 25.9875 17.7188 25.515 17.79 23.9344C17.8575 22.4719 18.1013 21.6769 18.3075 21.1481C18.5794 20.4488 18.9056 19.9481 19.4306 19.4231C19.9556 18.8981 20.4544 18.5738 21.1556 18.3019C21.6844 18.0956 22.4775 17.8519 23.94 17.7844C25.3237 17.7206 25.86 17.7019 28.6556 17.7V17.7038ZM38.0081 20.1938C37.7717 20.1937 37.5377 20.2403 37.3193 20.3308C37.1009 20.4212 36.9025 20.5538 36.7353 20.721C36.5682 20.8881 36.4356 21.0865 36.3451 21.3049C36.2547 21.5233 36.2081 21.7574 36.2081 21.9937C36.2081 22.2301 36.2547 22.4642 36.3451 22.6826C36.4356 22.901 36.5682 23.0994 36.7353 23.2665C36.9025 23.4337 37.1009 23.5663 37.3193 23.6567C37.5377 23.7472 37.7717 23.7938 38.0081 23.7938C38.4855 23.7937 38.9434 23.6041 39.2809 23.2665C39.6185 22.929 39.8081 22.4711 39.8081 21.9937C39.8081 21.5164 39.6185 21.0585 39.2809 20.721C38.9434 20.3834 38.4855 20.1938 38.0081 20.1938ZM30.0019 22.2975C28.9801 22.2816 27.9654 22.469 27.0168 22.849C26.0682 23.229 25.2047 23.7939 24.4765 24.5108C23.7483 25.2277 23.1701 26.0823 22.7753 27.0249C22.3806 27.9674 22.1773 28.9791 22.1773 30.0009C22.1773 31.0228 22.3806 32.0345 22.7753 32.977C23.1701 33.9196 23.7483 34.7742 24.4765 35.4911C25.2047 36.208 26.0682 36.7729 27.0168 37.1529C27.9654 37.5328 28.9801 37.7203 30.0019 37.7044C32.0241 37.6728 33.9529 36.8473 35.3718 35.4061C36.7908 33.9649 37.5861 32.0234 37.5861 30.0009C37.5861 27.9784 36.7908 26.037 35.3718 24.5958C33.9529 23.1545 32.0241 22.3291 30.0019 22.2975ZM30.0019 24.9994C31.3281 24.9994 32.6001 25.5262 33.5379 26.464C34.4757 27.4018 35.0025 28.6738 35.0025 30C35.0025 31.3262 34.4757 32.5982 33.5379 33.536C32.6001 34.4738 31.3281 35.0006 30.0019 35.0006C28.6756 35.0006 27.4037 34.4738 26.4659 33.536C25.5281 32.5982 25.0013 31.3262 25.0013 30C25.0013 28.6738 25.5281 27.4018 26.4659 26.464C27.4037 25.5262 28.6756 24.9994 30.0019 24.9994Z" fill="#A5B586"/>
</svg>
