<svg width="45" height="15" viewBox="0 0 45 15" fill="none" xmlns="http://www.w3.org/2000/svg">
<path fill-rule="evenodd" clip-rule="evenodd" d="M7.55721 14.9998C7.53816 14.9999 7.51909 15 7.5 15C7.48091 15 7.46184 14.9999 7.44279 14.9998H6.94531V14.9798C3.06219 14.6959 0 11.4556 0 7.5C0 3.54443 3.06219 0.304073 6.94531 0.0202009V0H7.5H37.0825V0.0114239C37.2207 0.00384117 37.3599 0 37.5 0C41.6421 0 45 3.35786 45 7.5C45 11.6421 41.6421 15 37.5 15C37.3599 15 37.2207 14.9962 37.0825 14.9886V14.9998H7.55721Z" fill="#174646"/>
</svg>
