<svg width="65" height="65" viewBox="0 0 65 65" fill="none" xmlns="http://www.w3.org/2000/svg">
<circle cx="32.5" cy="32.5" r="32.5" fill="#FFFDCE"/>
<path d="M32 34.7808L26.8918 40.2005C27.8808 41.9802 28.2242 44.0815 27.8574 46.1105C27.4906 48.1395 26.439 49.957 24.8996 51.2222C23.3602 52.4874 21.4387 53.1135 19.4953 52.9831C17.552 52.8527 15.7201 51.9747 14.3432 50.5138C12.9663 49.053 12.1389 47.1094 12.016 45.0475C11.8931 42.9856 12.4831 40.947 13.6756 39.3137C14.8681 37.6804 16.5811 36.5646 18.4934 36.1755C20.4058 35.7863 22.3863 36.1506 24.0637 37.1999L29.1719 31.7802L17.1295 19.0054C16.7576 18.6113 16.4625 18.1432 16.2612 17.628C16.0599 17.1127 15.9563 16.5605 15.9563 16.0027C15.9563 15.445 16.0599 14.8927 16.2612 14.3775C16.4625 13.8622 16.7576 13.3942 17.1295 13L32 28.7817L46.8705 13.0042C47.6204 13.8001 48.0417 14.8794 48.0417 16.0048C48.0417 17.1302 47.6204 18.2095 46.8705 19.0054L34.8301 31.7802L39.9363 37.1999C41.6137 36.1506 43.5942 35.7863 45.5066 36.1755C47.4189 36.5646 49.1319 37.6804 50.3244 39.3137C51.5169 40.947 52.1069 42.9856 51.984 45.0475C51.8611 47.1094 51.0337 49.053 49.6568 50.5138C48.2799 51.9747 46.448 52.8527 44.5047 52.9831C42.5613 53.1135 40.6398 52.4874 39.1004 51.2222C37.561 49.957 36.5094 48.1395 36.1426 46.1105C35.7759 44.0815 36.1192 41.9802 37.1082 40.2005L32 34.7808ZM19.9996 48.7566C21.0605 48.7566 22.0779 48.3095 22.8281 47.5136C23.5783 46.7176 23.9997 45.6381 23.9997 44.5125C23.9997 43.3869 23.5783 42.3074 22.8281 41.5115C22.0779 40.7156 21.0605 40.2684 19.9996 40.2684C18.9387 40.2684 17.9212 40.7156 17.171 41.5115C16.4209 42.3074 15.9994 43.3869 15.9994 44.5125C15.9994 45.6381 16.4209 46.7176 17.171 47.5136C17.9212 48.3095 18.9387 48.7566 19.9996 48.7566ZM44.0004 48.7566C45.0613 48.7566 46.0788 48.3095 46.829 47.5136C47.5791 46.7176 48.0006 45.6381 48.0006 44.5125C48.0006 43.3869 47.5791 42.3074 46.829 41.5115C46.0788 40.7156 45.0613 40.2684 44.0004 40.2684C42.9395 40.2684 41.9221 40.7156 41.1719 41.5115C40.4217 42.3074 40.0003 43.3869 40.0003 44.5125C40.0003 45.6381 40.4217 46.7176 41.1719 47.5136C41.9221 48.3095 42.9395 48.7566 44.0004 48.7566Z" fill="black"/>
</svg>
