<svg width="144" height="148" viewBox="0 0 144 148" fill="none" xmlns="http://www.w3.org/2000/svg">
<g filter="url(#filter0_d_237_311)">
<circle cx="74" cy="60" r="29" stroke="white" stroke-width="2"/>
</g>
<path d="M65.25 58.7501H80.075L75.5375 53.3001C75.3253 53.0448 75.2232 52.7157 75.2537 52.3852C75.2842 52.0547 75.4447 51.7498 75.7 51.5376C75.9553 51.3254 76.2844 51.2233 76.6149 51.2538C76.9454 51.2843 77.2503 51.4448 77.4625 51.7001L83.7125 59.2001C83.7545 59.2598 83.7922 59.3224 83.825 59.3876C83.825 59.4501 83.825 59.4876 83.9125 59.5501C83.9692 59.6934 83.9988 59.846 84 60.0001C83.9988 60.1542 83.9692 60.3068 83.9125 60.4501C83.9125 60.5126 83.9125 60.5501 83.825 60.6126C83.7922 60.6778 83.7545 60.7404 83.7125 60.8001L77.4625 68.3001C77.345 68.4412 77.1978 68.5547 77.0314 68.6325C76.8651 68.7102 76.6836 68.7504 76.5 68.7501C76.2079 68.7507 75.9249 68.649 75.7 68.4626C75.5734 68.3577 75.4688 68.2288 75.3921 68.0834C75.3154 67.9379 75.2682 67.7788 75.2531 67.6151C75.238 67.4513 75.2553 67.2863 75.3041 67.1292C75.3529 66.9722 75.4322 66.8264 75.5375 66.7001L80.075 61.2501H65.25C64.9185 61.2501 64.6005 61.1184 64.3661 60.884C64.1317 60.6496 64 60.3316 64 60.0001C64 59.6686 64.1317 59.3506 64.3661 59.1162C64.6005 58.8818 64.9185 58.7501 65.25 58.7501Z" fill="white"/>
<defs>
<filter id="filter0_d_237_311" x="0" y="0" width="148" height="148" filterUnits="userSpaceOnUse" color-interpolation-filters="sRGB">
<feFlood flood-opacity="0" result="BackgroundImageFix"/>
<feColorMatrix in="SourceAlpha" type="matrix" values="0 0 0 0 0 0 0 0 0 0 0 0 0 0 0 0 0 0 127 0" result="hardAlpha"/>
<feOffset dy="14"/>
<feGaussianBlur stdDeviation="22"/>
<feColorMatrix type="matrix" values="0 0 0 0 0.0561111 0 0 0 0 0.0777333 0 0 0 0 0.133333 0 0 0 0.08 0"/>
<feBlend mode="normal" in2="BackgroundImageFix" result="effect1_dropShadow_237_311"/>
<feBlend mode="normal" in="SourceGraphic" in2="effect1_dropShadow_237_311" result="shape"/>
</filter>
</defs>
</svg>
