<svg width="68" height="68" viewBox="0 0 68 68" fill="none" xmlns="http://www.w3.org/2000/svg">
<g filter="url(#filter0_d_237_254)">
<path d="M34 0C17.4313 0 4 13.4313 4 30C4 46.5687 17.4313 60 34 60C50.5687 60 64 46.5687 64 30C64 13.4313 50.5687 0 34 0ZM41.1062 20.7312H36.5969C36.0625 20.7312 35.4688 21.4344 35.4688 22.3687V25.625H41.1094L40.2562 30.2688H35.4688V44.2094H30.1469V30.2688H25.3187V25.625H30.1469V22.8937C30.1469 18.975 32.8656 15.7906 36.5969 15.7906H41.1062V20.7312Z" fill="white"/>
</g>
<defs>
<filter id="filter0_d_237_254" x="0" y="0" width="68" height="68" filterUnits="userSpaceOnUse" color-interpolation-filters="sRGB">
<feFlood flood-opacity="0" result="BackgroundImageFix"/>
<feColorMatrix in="SourceAlpha" type="matrix" values="0 0 0 0 0 0 0 0 0 0 0 0 0 0 0 0 0 0 127 0" result="hardAlpha"/>
<feOffset dy="4"/>
<feGaussianBlur stdDeviation="2"/>
<feComposite in2="hardAlpha" operator="out"/>
<feColorMatrix type="matrix" values="0 0 0 0 0 0 0 0 0 0 0 0 0 0 0 0 0 0 0.25 0"/>
<feBlend mode="normal" in2="BackgroundImageFix" result="effect1_dropShadow_237_254"/>
<feBlend mode="normal" in="SourceGraphic" in2="effect1_dropShadow_237_254" result="shape"/>
</filter>
</defs>
</svg>
