<svg width="60" height="60" viewBox="0 0 60 60" fill="none" xmlns="http://www.w3.org/2000/svg">
<circle cx="30" cy="30" r="30" fill="white"/>
<path d="M50 38.768V21.232C50 19.907 49.13 18.742 47.845 18.42C44.369 17.548 37.185 16 30 16C22.816 16 15.631 17.548 12.155 18.42C10.87 18.743 10 19.907 10 21.232V38.768C10 40.093 10.87 41.258 12.155 41.58C15.631 42.452 22.815 44 30 44C37.184 44 44.369 42.452 47.845 41.58C49.13 41.257 50 40.093 50 38.768Z" stroke="#A5B586" stroke-width="4"/>
<path d="M28.573 35.8991C28.4231 36.0039 28.2473 36.0656 28.0648 36.0774C27.8822 36.0893 27.6999 36.0508 27.5377 35.9663C27.3755 35.8817 27.2396 35.7543 27.1448 35.5979C27.05 35.4415 26.9999 35.262 27 35.0791V24.9211C26.9999 24.7382 27.05 24.5587 27.1448 24.4023C27.2396 24.2459 27.3755 24.1185 27.5377 24.0339C27.6999 23.9494 27.8822 23.9109 28.0648 23.9228C28.2473 23.9346 28.4231 23.9963 28.573 24.1011L35.83 29.1811C35.9616 29.2733 36.0691 29.3959 36.1433 29.5385C36.2175 29.681 36.2562 29.8394 36.2562 30.0001C36.2562 30.1608 36.2175 30.3192 36.1433 30.4617C36.0691 30.6043 35.9616 30.7269 35.83 30.8191L28.573 35.8991Z" stroke="#A5B586" stroke-width="4" stroke-linejoin="round"/>
</svg>
