<svg width="40" height="40" viewBox="0 0 40 40" fill="green" xmlns="http://www.w3.org/2000/svg">
<path d="M20 21.7808L14.8918 27.2005C15.8808 28.9802 16.2242 31.0815 15.8574 33.1105C15.4906 35.1395 14.439 36.957 12.8996 38.2222C11.3602 39.4874 9.43869 40.1135 7.49533 39.9831C5.55197 39.8527 3.72015 38.9747 2.34324 37.5138C0.96633 36.053 0.138868 34.1094 0.0159617 32.0475C-0.106945 29.9856 0.483141 27.947 1.67561 26.3137C2.86808 24.6804 4.58106 23.5646 6.49345 23.1755C8.40584 22.7863 10.3863 23.1506 12.0637 24.1999L17.1719 18.7802L5.12947 6.00542C4.75755 5.61125 4.46251 5.14318 4.2612 4.62795C4.0599 4.11272 3.95628 3.56045 3.95628 3.00271C3.95628 2.44497 4.0599 1.89269 4.2612 1.37747C4.46251 0.86224 4.75755 0.394164 5.12947 0L20 15.7817L34.8705 0.0042438C35.6204 0.800132 36.0417 1.87944 36.0417 3.00483C36.0417 4.13022 35.6204 5.20953 34.8705 6.00542L22.8301 18.7802L27.9363 24.1999C29.6137 23.1506 31.5942 22.7863 33.5066 23.1755C35.4189 23.5646 37.1319 24.6804 38.3244 26.3137C39.5169 27.947 40.1069 29.9856 39.984 32.0475C39.8611 34.1094 39.0337 36.053 37.6568 37.5138C36.2799 38.9747 34.448 39.8527 32.5047 39.9831C30.5613 40.1135 28.6398 39.4874 27.1004 38.2222C25.561 36.957 24.5094 35.1395 24.1426 33.1105C23.7759 31.0815 24.1192 28.9802 25.1082 27.2005L20 21.7808ZM7.99957 35.7566C9.06048 35.7566 10.0779 35.3095 10.8281 34.5136C11.5783 33.7176 11.9997 32.6381 11.9997 31.5125C11.9997 30.3869 11.5783 29.3074 10.8281 28.5115C10.0779 27.7156 9.06048 27.2684 7.99957 27.2684C6.93867 27.2684 5.92122 27.7156 5.17105 28.5115C4.42087 29.3074 3.99943 30.3869 3.99943 31.5125C3.99943 32.6381 4.42087 33.7176 5.17105 34.5136C5.92122 35.3095 6.93867 35.7566 7.99957 35.7566V35.7566ZM32.0004 35.7566C33.0613 35.7566 34.0788 35.3095 34.829 34.5136C35.5791 33.7176 36.0006 32.6381 36.0006 31.5125C36.0006 30.3869 35.5791 29.3074 34.829 28.5115C34.0788 27.7156 33.0613 27.2684 32.0004 27.2684C30.9395 27.2684 29.9221 27.7156 29.1719 28.5115C28.4217 29.3074 28.0003 30.3869 28.0003 31.5125C28.0003 32.6381 28.4217 33.7176 29.1719 34.5136C29.9221 35.3095 30.9395 35.7566 32.0004 35.7566V35.7566Z" fill="green"/>
</svg>
